#!OML:ASF F:\VICON\USERDATA\INSTALL\rory3\rory3.ASF
:FULLY-SPECIFIED
:DEGREES
73
root 0.6899488611002335 17.53360822295536 40.56348509798344 3.091759087341753 -2.789129056070598 -0.0011095366070619228
lfemur -3.8426115576882705 -4.086603692471838 -24.105604852213645
ltibia 45.1556545527539
lfoot -10.037717898055458 -2.9762588676155435
ltoes -8.385311877226863
rfemur -18.29325098018554 4.538763824923251 23.647522703101018
rtibia 59.035281283783306
rfoot -2.655068885022488 3.083384087205399
rtoes 4.707791797363164
lowerback 13.872138526611932 1.7454803002042265 -1.3957029846395255
upperback -0.09335866206969279 2.0026250540748336 0.016247472736438784
thorax -8.917941861676422 1.0583467767519972 1.1865484817742602
lowerneck -19.497436167478174 -4.3034525808356445 -2.5725992416615937
upperneck 10.029717275744824 -6.074975065355666 6.11452551237759
head 6.57827181760507 -2.5323944270315835 1.713010801587715
lclavicle -1.540553557103614e-15 -3.293383453488234e-15
lhumerus -41.097571152613924 -9.22770509022935 87.45467985397437
lradius 120.08311793586522
lwrist 31.93067030122482
lhand -25.059185578237653 2.385204284481889
lfingers 7.12502
lthumb 2.1644182892061434 32.99674500090549
rclavicle -1.5497683500872739e-15 -3.2995015800615428e-15
rhumerus -50.89248565717036 11.866842388070841 -100.34323580612129
rradius 115.83034538041397
rwrist -21.17216452943112
rhand -18.307806498861098 37.83904342278268
rfingers 7.12502
rthumb 8.26708681194427 9.597485968909181
74
root 0.6873684968903155 17.640252306528897 41.49370320405309 3.3496334637788063 -3.197533791758734 0.7152110415281707
lfemur -1.1410937251318796 -3.2209635417145477 -25.128673787329767
ltibia 44.37848366147779
lfoot -7.894491022094615 -3.613759307109084
ltoes -15.809248747915175
rfemur -19.92043714870968 4.055388560634567 22.6982130744778
rtibia 60.2891956998368
rfoot -2.3147869758997173 4.395087651665255
rtoes 4.750061150106181
lowerback 13.625362016327967 1.352127283625391 -2.168991677498825
upperback -0.22513025687184085 1.396483700570721 0.10665397797732412
thorax -8.96268490629442 0.7809257776465844 1.655278812037174
lowerneck -19.706932545125092 -3.950976294217742 -2.536469439154314
upperneck 10.048392509032778 -5.563579910886889 5.905281883313136
head 6.607189810360872 -2.2899785464263935 1.6858775024233579
lclavicle -1.5410696097200558e-15 -3.2937582344951618e-15
lhumerus -40.97344475521694 -9.091954864102062 86.8844055471793
lradius 120.16051659959284
lwrist 32.113448716690066
lhand -24.98857942373939 2.3339156125005944
lfingers 7.12502
lthumb 2.2227065246147015 32.932203852142365
rclavicle -1.550161657671048e-15 -3.299794140923341e-15
rhumerus -51.422550043114526 11.468349532801822 -100.29911081246802
rradius 115.19617424094275
rwrist -21.351015443916506
rhand -18.239910770850422 37.84302116386102
rfingers 7.12502
rthumb 8.306833999199734 9.690759834752356
75
root 0.6583266292345233 17.794371672607532 42.71221129002863 3.434973507686398 -3.666997652764461 0.7024727686631782
lfemur 1.085889919889361 -2.331092665138588 -24.870686738147747
ltibia 43.99278908755756
lfoot -4.105498217234971 -5.056285648200392
ltoes -24.05735552873975
rfemur -20.962825378977183 3.845018472825692 22.810423799967978
rtibia 60.140889660758354
rfoot -0.7380420920057071 5.0753260838835725
rtoes 3.880139309919312
lowerback 13.577259310469554 0.9465852718359784 -2.430353753615341
upperback -0.4285336371423925 0.8420455251398808 0.4118512052331347
thorax -9.023983825489358 0.5240818073171938 2.1287740580690353
lowerneck -19.931439775544963 -3.6130488367980527 -2.5075208692385615
upperneck 10.146561228933447 -5.055584873593362 5.6571548272378145
head 6.661625377974137 -2.045667757167028 1.652516743903964
lclavicle -1.5413811596024238e-15 -3.293984492734712e-15
lhumerus -40.900860289554124 -9.005186612222818 86.47526166801727
lradius 120.20907122838034
lwrist 32.2648018521187
lhand -24.944926258662758 2.303760286009269
lfingers 7.12502
lthumb 2.2305354784665328 32.85972240778767
rclavicle -1.5505405728188058e-15 -3.3000327103860476e-15
rhumerus -52.086993193243096 11.186490496795905 -100.27535246760681
rradius 114.88071362493355
rwrist -21.573594813060474
rhand -18.16473195081065 37.82557824781328
rfingers 7.12502
rthumb 8.394803033955418 9.797583589722231
76
root 0.6313103286860713 17.95399221464121 43.708966784886584 3.5438621242143338 -4.398577181156369 0.26584612537382224
lfemur 2.572060071304339 -1.4908802008174145 -24.061074653189213
ltibia 44.29346890232158
lfoot 1.1377247207107053 -7.123487237787339
ltoes -29.427357263988476
rfemur -21.493971712042892 4.088593067585923 23.61153232252162
rtibia 58.57865148392641
rfoot 1.9013945957923886 5.150066051947984
rtoes 2.0123688145808485
lowerback 13.203916495145817 0.6116552234694266 -2.251178517579606
upperback -0.6360234469442905 0.4597498344375458 0.792120668039499
thorax -8.99674732477294 0.35695710235485206 2.4646037023146317
lowerneck -20.18965362397211 -3.2886071504597014 -2.4908278964938217
upperneck 10.323417047578356 -4.555870792983866 5.38724848439046
head 6.739007800443714 -1.8055669658620697 1.620486757577107
lclavicle -1.541522242139839e-15 -3.2940869756168612e-15
lhumerus -41.39866518232906 -9.049420582125583 86.09441144471312
lradius 120.29765727537246
lwrist 32.482979871063115
lhand -24.951825424635356 2.2527057275806452
lfingers 7.12502
lthumb 2.1635558485794357 32.744552897011985
rclavicle -1.5511474283217633e-15 -3.3004244485013746e-15
rhumerus -52.8849783308317 11.045237882632678 -100.27391373534554
rradius 114.83361064884869
rwrist -21.79940878997742
rhand -18.073275272142112 37.82434183240622
rfingers 7.12502
rthumb 8.436006681171214 9.825058501613688
